<svg width="166" height="166" fill="none" xmlns="http://www.w3.org/2000/svg"><path d="M79.465 3.536a5 5 0 017.07 0l75.929 75.929a5 5 0 010 7.07l-75.928 75.929a5 5 0 01-7.072 0L3.537 86.536a5 5 0 010-7.072L79.465 3.537z" fill="#B944CF"/><path d="M73.563 88.618l-4.699-2.244-3.967 9.796c-.012.03-.024.062-.034.093-.504 1.512-.392 2.886.316 3.867.613.851 1.6 1.321 2.777 1.321a5.66 5.66 0 001.874-.348l9.796-3.967-2.243-4.7c-.6-1.255-2.564-3.218-3.82-3.818zm36.302-30.246L79.019 89.218c.512.63.938 1.27 1.219 1.855l7.83 16.396c1.051 2.202 2.438 2.531 3.17 2.531.656 0 2.273-.285 3.152-2.923l15.297-45.89c.343-1.03.4-1.994.178-2.815zM76.781 86.981l30.848-30.848a3.942 3.942 0 00-1.035-.133c-.559 0-1.158.105-1.781.313L58.923 71.61c-2.428.81-2.87 2.222-2.918 2.993-.048.77.217 2.227 2.526 3.33l16.396 7.83c.585.28 1.224.706 1.854 1.218z" fill="#fff"/></svg>