<svg width="166" height="166" fill="none" xmlns="http://www.w3.org/2000/svg"><path d="M79.465 3.536a5 5 0 017.07 0l75.929 75.929a5 5 0 010 7.07l-75.928 75.929a5 5 0 01-7.072 0L3.537 86.536a5 5 0 010-7.072L79.465 3.537z" fill="#11115D"/><path d="M64.237 90.388a1.584 1.584 0 00.367 1.815l.401.372a69.25 69.25 0 013.827-4.496c.107-.116.22-.174.328-.281l-2.585-2.39c-1.343 2.672-2.115 4.492-2.338 4.98zm13.889 6.282a71.95 71.95 0 01-4.174 4.174l.545.503a1.58 1.58 0 001.852.216c.802-.454 2.066-1.111 4.74-2.74l-2.707-2.502c-.099.116-.148.233-.256.349zm-1.161-8.064c-1.188-1.098-4.36.053-5.81 1.62-4.85 5.248-6.99 8.917-7.93 11.071a1.58 1.58 0 002.197 2.028c2.026-1.085 5.473-3.493 10.38-8.803 1.595-1.725 2.29-4.873 1.164-5.915l-.001-.001zM60.762 76.975l-4.295 4.647a1.582 1.582 0 001.63 2.585c2.392-.743 4.507-1.1 5.954-.79 1.894-3.7 3.952-7.12 6.15-10.24-1.374-.807-5.786-.154-9.439 3.798zm23.111 31.883a1.58 1.58 0 001.817-.365l4.295-4.647c3.326-3.599 3.76-8.09 2.918-9.476-3.277 2.678-6.614 4.962-9.735 6.887.27 1.235.17 2.447-.212 5.992a1.578 1.578 0 00.917 1.609zm3.135-38.113a4.751 4.751 0 00.264 6.707 4.751 4.751 0 006.706-.264 4.75 4.75 0 00-.263-6.707 4.751 4.751 0 00-6.707.264zm21.917-15.199a1.58 1.58 0 00-1.516-1.401c-3.894-.14-7.742.49-11.487 1.798.388 2.593 1.845 5.359 4.235 7.568 2.419 2.235 5.367 3.467 8.027 3.615.881-3.618 1.214-7.469.741-11.58z" fill="#fff"/><path d="M98.01 65.835c-2.734-2.527-4.464-5.62-5.1-8.67-9.34 4.266-18.093 13.125-24.803 25.35l3.708 3.428c2.398-1.086 5.347-1.463 7.297.339 1.954 1.806 1.804 4.774.91 7.247l3.83 3.54c8.971-5.9 19.326-15.046 23.419-26.833-3.166-.352-6.482-1.833-9.26-4.401zm-1.708 13.5c-2.96 3.203-7.975 3.4-11.178.44-3.203-2.96-3.4-7.975-.44-11.177 2.96-3.203 7.975-3.4 11.178-.44 3.203 2.96 3.4 7.975.44 11.178z" fill="#fff"/></svg>