<svg width="44" height="44" fill="none" xmlns="http://www.w3.org/2000/svg"><circle cx="22" cy="22" r="22" fill="#fff" fill-opacity=".1"/><path d="M31.3 17.645a2.392 2.392 0 00-1.687-1.723c-1.511-.422-7.488-.422-7.488-.422s-6.012 0-7.523.422a2.391 2.391 0 00-1.688 1.723c-.422 1.476-.422 4.64-.422 4.64s0 3.13.422 4.64a2.344 2.344 0 001.688 1.688c1.511.387 7.523.387 7.523.387s5.977 0 7.488-.387a2.345 2.345 0 001.688-1.687c.422-1.512.422-4.64.422-4.64s0-3.165-.422-4.642zm-11.144 7.488v-5.695l4.992 2.847-4.992 2.848z" fill="#fff"/></svg>