<svg width="79" height="82" fill="none" xmlns="http://www.w3.org/2000/svg"><rect opacity=".1" width="79" height="82" rx="5" fill="#E250EB"/><path d="M56.473 23H34.477a.527.527 0 100 1.055h21.468v4.57H29.596v-4.57h2.707a.527.527 0 100-1.055H29.07a.527.527 0 00-.527.527v8.403h-7.015a.527.527 0 00-.527.527v22.02a.527.527 0 101.055 0V38.609H52.5a.527.527 0 100-1.054H22.055v-4.57h33.89v4.57h-1.207a.527.527 0 100 1.054h1.207v19.336h-33.89V56.75a.527.527 0 10-1.055 0v1.723c0 .291.236.527.527.527h34.946a.527.527 0 00.527-.527V23.527a.527.527 0 00-.527-.527zm-26.877 8.93v-2.25h26.35v2.25h-26.35z" fill="#E250EB"/><path d="M30.721 26.305c0 .872.71 1.582 1.582 1.582.873 0 1.582-.71 1.582-1.582 0-.873-.71-1.582-1.582-1.582-.872 0-1.582.71-1.582 1.582zm2.11 0a.528.528 0 11-1.056-.001.528.528 0 011.056 0zm5.273 0c0-.873-.71-1.582-1.582-1.582-.872 0-1.582.71-1.582 1.582 0 .872.71 1.582 1.582 1.582.872 0 1.582-.71 1.582-1.582zm-2.11 0a.528.528 0 111.056 0 .528.528 0 01-1.055 0zm6.329 0c0-.873-.71-1.582-1.582-1.582-.873 0-1.582.71-1.582 1.582 0 .872.71 1.582 1.582 1.582.872 0 1.582-.71 1.582-1.582zm-2.11 0a.528.528 0 111.056 0 .528.528 0 01-1.055 0zM23.18 35.234c0 .873.71 1.582 1.582 1.582.872 0 1.582-.71 1.582-1.582 0-.872-.71-1.582-1.582-1.582-.873 0-1.582.71-1.582 1.582zm2.11 0a.528.528 0 11-1.057 0 .528.528 0 011.056 0zm2.108 0c0 .873.71 1.582 1.582 1.582.873 0 1.582-.71 1.582-1.582 0-.872-.71-1.582-1.582-1.582-.872 0-1.582.71-1.582 1.582zm2.11 0a.528.528 0 11-1.056 0 .528.528 0 011.056 0zm2.109 0c0 .873.71 1.582 1.582 1.582.873 0 1.582-.71 1.582-1.582 0-.872-.71-1.582-1.582-1.582-.872 0-1.582.71-1.582 1.582zm2.11 0a.528.528 0 11-1.056 0 .528.528 0 011.056 0zm3.579 6.612H24.93a.527.527 0 00-.528.527v10.406c0 .292.237.528.528.528h12.375a.527.527 0 00.527-.528V42.373a.527.527 0 00-.527-.527zm-.528 1.054v4.436l-3.232 2.81-4.244-3.248a.8.8 0 00-1.012.034l-2.832 2.485V42.9h11.32zm-11.32 9.352V50.82l3.37-2.958 5.735 4.389h-9.105zm11.32 0H36.3L34.401 50.8l2.377-2.067v3.519z" fill="#E250EB"/><path d="M33.952 47.061a1.86 1.86 0 001.857-1.857 1.86 1.86 0 00-1.857-1.857 1.86 1.86 0 00-1.858 1.857 1.86 1.86 0 001.858 1.857zm0-2.66a.803.803 0 11-.002 1.607.803.803 0 01.002-1.607zm6.996 2.822h11.529a.527.527 0 000-1.055h-11.53a.527.527 0 100 1.055zm0-2.992h5.764a.527.527 0 100-1.055h-5.764a.527.527 0 100 1.055zm0 5.523h11.529a.527.527 0 000-1.055h-11.53a.527.527 0 100 1.055zm0 2.531h11.529a.527.527 0 000-1.054h-11.53a.527.527 0 100 1.054zM24.83 55.618c0 .29.236.527.527.527h27.12a.527.527 0 000-1.055h-27.12a.527.527 0 00-.527.528z" fill="#E250EB"/></svg>