<svg width="83" height="84" fill="none" xmlns="http://www.w3.org/2000/svg"><path d="M38.672 3.328a4 4 0 015.656 0l35.844 35.844a4 4 0 010 5.656L44.328 80.672a4 4 0 01-5.656 0L2.828 44.828a4 4 0 010-5.656L38.672 3.328z" fill="#F5F5F5"/><path d="M40.086 13.914a2 2 0 012.828 0l26.672 26.672a2 2 0 010 2.828L42.914 70.086a2 2 0 01-2.828 0L13.414 43.414a2 2 0 010-2.828l26.672-26.672z" fill="#F99313"/><path d="M50.707 42.707a1 1 0 000-1.414l-6.364-6.364a1 1 0 00-1.414 1.414L48.586 42l-5.657 5.657a1 1 0 001.414 1.414l6.364-6.364zM33 43h17v-2H33v2z" fill="#fff"/></svg>