<svg width="121" height="120" fill="none" xmlns="http://www.w3.org/2000/svg"><g filter="url(#filter0_d_120_28)"><path d="M57.672 15.328a4 4 0 015.656 0l35.844 35.844a4 4 0 010 5.656L63.328 92.672a4 4 0 01-5.656 0L21.828 56.828a4 4 0 010-5.656l35.844-35.844z" fill="#fff"/></g><path d="M59.086 25.414a2 2 0 012.828 0l26.672 26.671a2 2 0 010 2.829L61.914 81.585a2 2 0 01-2.828 0L32.414 54.914a2 2 0 010-2.829l26.672-26.671z" fill="#725EFE"/><path d="M69.707 54.207a1 1 0 000-1.415l-6.364-6.364a1 1 0 00-1.414 1.415l5.657 5.656-5.657 5.657a1 1 0 001.414 1.415l6.364-6.364zM52 54.499h17v-2H52v2z" fill="#fff"/><defs><filter id="filter0_d_120_28" x=".657" y=".157" width="119.686" height="119.686" filterUnits="userSpaceOnUse" color-interpolation-filters="sRGB"><feFlood flood-opacity="0" result="BackgroundImageFix"/><feColorMatrix in="SourceAlpha" values="0 0 0 0 0 0 0 0 0 0 0 0 0 0 0 0 0 0 127 0" result="hardAlpha"/><feOffset dy="6"/><feGaussianBlur stdDeviation="10"/><feComposite in2="hardAlpha" operator="out"/><feColorMatrix values="0 0 0 0 0.447059 0 0 0 0 0.368627 0 0 0 0 0.996078 0 0 0 0.1 0"/><feBlend in2="BackgroundImageFix" result="effect1_dropShadow_120_28"/><feBlend in="SourceGraphic" in2="effect1_dropShadow_120_28" result="shape"/></filter></defs></svg>