<svg width="166" height="166" fill="none" xmlns="http://www.w3.org/2000/svg"><path d="M79.465 3.536a5 5 0 017.07 0l75.929 75.929a5 5 0 010 7.07l-75.928 75.929a5 5 0 01-7.072 0L3.537 86.536a5 5 0 010-7.072L79.465 3.537z" fill="#F49219"/><path d="M108.474 57.526a5.208 5.208 0 00-7.441.076L89.971 69.13l-26.996-8.934-5.667 5.667L79.81 79.718 68.424 91.582l-7.302-1.198L56 95.505l10.735 3.76L70.495 110l5.122-5.122-1.2-7.302L86.283 86.19l13.855 22.502 5.667-5.667-8.933-26.996 11.527-11.062a5.209 5.209 0 00.076-7.441z" fill="#fff"/></svg>