<svg width="79" height="82" fill="none" xmlns="http://www.w3.org/2000/svg"><rect opacity=".1" width="79" height="82" rx="5" fill="#F99313"/><path d="M30.796 50.704l-2.863-1.909a1.474 1.474 0 00-2.288 1.225v4.024a1.474 1.474 0 002.288 1.225l2.863-1.909c.41-.273.656-.731.656-1.224v-.207a1.47 1.47 0 00-.656-1.225zm-.506 1.432a.31.31 0 01-.138.258l-2.863 1.909c-.192.128-.483-.026-.483-.259V50.02a.311.311 0 01.483-.258l2.863 1.908a.31.31 0 01.138.259v.207z" fill="#F99313"/><path d="M55.258 23h-17.42c-.96 0-1.741.782-1.741 1.742v2.903H23.323c-.64 0-1.162.521-1.162 1.162v19.382A6.926 6.926 0 0021 52.032 6.975 6.975 0 0027.968 59a6.945 6.945 0 005.179-2.323h14.96A4.066 4.066 0 0051.774 59a4.07 4.07 0 004.065-4.065V40.094c0-.251-.056-.503-.16-.73l-.585-1.267h.164c.96 0 1.742-.782 1.742-1.742V24.742c0-.96-.782-1.742-1.742-1.742zm-19.161 5.806v3.484H23.323v-3.483h12.774zm-8.13 29.033a5.813 5.813 0 01-5.806-5.807 5.813 5.813 0 015.807-5.806 5.813 5.813 0 015.806 5.806 5.813 5.813 0 01-5.806 5.807zm6.026-2.323a6.912 6.912 0 00.942-3.484 6.976 6.976 0 00-6.967-6.967 6.93 6.93 0 00-4.645 1.788v-13.4h12.774v2.903c0 .96.781 1.742 1.742 1.742h3.065l.845 2.537a1.386 1.386 0 002.63-.001l.846-2.536h3.23l-.585 1.267c-.105.227-.16.48-.16.73v14.841c0 .198.019.39.046.581H33.992zm16.277-18.58h3.009l1.071 2.322h-5.153l1.073-2.323zm.536-1.162l.968-2.098.969 2.098h-1.937zM48.87 40.42h2.322v10.452H48.87V40.419zm0 11.613h5.806v1.162H48.87v-1.162zm3.484-1.161V40.419h2.322v10.452h-2.322zm-.58 6.968a2.907 2.907 0 01-2.904-2.904v-.58h5.806v.58a2.907 2.907 0 01-2.903 2.904zm4.064-21.484c0 .32-.26.58-.58.58h-.701l-2.784-6.03-2.783 6.03h-4.603l-1.11 3.33c-.062.184-.365.184-.427 0l-1.11-3.33h-3.9a.58.58 0 01-.58-.58V24.742c0-.32.26-.58.58-.58h17.42c.32 0 .58.26.58.58v11.613z" fill="#F99313"/><path d="M49.734 28.085l-2.464-2.464-.722.722v-1.02h-3.483v1.02l-.722-.722-2.464 2.464.723.721H39.58v3.484h1.02l-.722.722 2.464 2.464.722-.722v1.02h3.483v-1.02l.722.722 2.464-2.465-.723-.72h1.021v-3.485h-1.02l.722-.72zm-.863 3.053c-.413.049-.77.316-.932.708-.162.391-.099.833.158 1.16l-.833.833a1.16 1.16 0 00-1.869.774h-1.178a1.158 1.158 0 00-.708-.931 1.159 1.159 0 00-1.16.157l-.834-.833c.257-.327.32-.768.158-1.16a1.154 1.154 0 00-.931-.708v-1.179c.413-.049.77-.316.932-.708a1.159 1.159 0 00-.158-1.16l.833-.833c.327.256.768.32 1.16.158.392-.162.659-.52.709-.932h1.178a1.161 1.161 0 001.869.774l.833.833c-.257.327-.32.768-.158 1.16.162.392.52.66.932.708v1.179h-.001z" fill="#F99313"/><path d="M44.806 27.645a2.907 2.907 0 00-2.903 2.903 2.907 2.907 0 002.903 2.904 2.908 2.908 0 002.904-2.904c0-1.6-1.303-2.903-2.904-2.903zm0 4.645a1.743 1.743 0 010-3.484c.96 0 1.742.782 1.742 1.742s-.781 1.742-1.742 1.742zm-19.742-2.322h1.162v1.161h-1.162v-1.161zm2.323 0h1.161v1.161h-1.16v-1.161zm2.323 0h1.16v1.161h-1.16v-1.161zm7.548 22.064h1.161v1.162h-1.161v-1.162zm3.484 0h1.161v1.162h-1.161v-1.162zm3.484 0h1.161v1.162h-1.161v-1.162zM33.774 34.613h-8.129c-.64 0-1.161.52-1.161 1.161v6.968c0 .64.52 1.161 1.161 1.161h8.13c.64 0 1.16-.52 1.16-1.161v-6.968c0-.64-.52-1.161-1.16-1.161zm-8.129 1.161h8.13v6.454l-2.104-3.366a1.62 1.62 0 00-1.38-.765 1.62 1.62 0 00-1.381.765l-2.425 3.88h-.84v-6.968zm7.082 6.968h-4.874l2.04-3.264c.173-.276.62-.275.793 0l2.04 3.264z" fill="#F99313"/><path d="M26.806 36.935h1.162v1.162h-1.162v-1.162zm10.452 5.807h2.323v1.161h-2.323v-1.161zm3.484 0h4.645v1.161h-4.645v-1.161zm-3.484 2.323h8.129v1.16h-8.129v-1.16zm0 2.322h8.129v1.161h-8.129v-1.16zm0 2.323h8.129v1.16h-8.129v-1.16z" fill="#F99313"/></svg>