<svg width="79" height="82" fill="none" xmlns="http://www.w3.org/2000/svg"><rect opacity=".1" width="79" height="82" rx="5" fill="#fff"/><path d="M38.953 34.633h1.094v1.125h-1.094v-1.125zm10.883 4.19l-1.707 2.656.913.619.996-1.552c.246 1.435-.05 3.037-1.303 3.854a7.409 7.409 0 01-1.64.766 2.12 2.12 0 00.2-1.311 2.073 2.073 0 00-.622-1.164c-.463-.358-1.249-.458-2.066.332-.586.563-1.237 1.75-.631 2.696.254.395.65.67 1.102.766a6.235 6.235 0 01-2.524 2.09l.453 1.024a7.478 7.478 0 003.38-3.097 8.651 8.651 0 002.934-1.15c1.68-1.097 2.103-3.158 1.8-4.979l1.45.984.601-.939-2.582-1.753a.534.534 0 00-.754.158zm-3.773 5.965c-.11.216-.22.43-.332.642a.929.929 0 01-.459-.057.954.954 0 01-.379-.273c-.205-.32.146-.946.467-1.256a.972.972 0 01.525-.297.214.214 0 01.136.045 1.03 1.03 0 01.042 1.196zm-4.923-5.092H29.11a.54.54 0 00-.387.165.57.57 0 00-.16.397v2.813h-1.641a.54.54 0 00-.387.165.57.57 0 00-.16.397v7.875c0 .15.058.293.16.398a.54.54 0 00.387.165h12.031a.54.54 0 00.387-.165.57.57 0 00.16-.398v-2.812h1.64a.54.54 0 00.387-.165.57.57 0 00.16-.398v-7.875a.57.57 0 00-.16-.397.54.54 0 00-.386-.165zm-1.68 1.124l-3.008 2.25H33.8l-3.008-2.25h8.668zm-9.803.542l2.284 1.708h-2.284v-1.708zm7.616 2.833l-4.334 3.242-4.335-3.242h8.669zm1.134 6.75H27.47v-6.208l5.147 3.85a.538.538 0 00.643 0l5.147-3.85v6.208zm2.188-3.375H39.5v-3.938a.57.57 0 00-.16-.397.54.54 0 00-.387-.165h-.643l2.284-1.708v6.208z" fill="#fff"/><path d="M55.531 34.858a.543.543 0 00.328-.268.572.572 0 00.047-.428l-2.14-7.56a.568.568 0 00-.263-.338.532.532 0 00-.416-.047l-11.552 3.458a.55.55 0 00-.327.27.577.577 0 00-.045.427l.727 2.574h-5.403l1.35-4.64a.577.577 0 00-.043-.429.55.55 0 00-.325-.272l-8.164-2.51a.534.534 0 00-.416.044.56.56 0 00-.264.333l-1.554 5.344a.577.577 0 00.043.428.55.55 0 00.324.272l4.65 1.43h-7.354a.539.539 0 00-.386.165.57.57 0 00-.16.397v20.25h-.547a.54.54 0 00-.387.165.571.571 0 00-.16.398v1.125c0 .447.173.877.48 1.193a1.62 1.62 0 001.16.494h29.532a1.62 1.62 0 001.16-.494c.307-.317.48-.746.48-1.193V54.32a.571.571 0 00-.16-.398.54.54 0 00-.387-.165h-.547V35.075l.72-.217zm-3.753-7.076l-3.281 4.357-5.042-1.867 8.323-2.49zM48.5 33.336a.532.532 0 00.617-.184l3.897-5.175 1.685 5.962-10.5 3.143-1.685-5.963 5.986 2.217zm-12.956-5.148l-3.008 1.088-1.934-2.608 4.941 1.52zm-7.27 2.411l1.09-3.746 2.543 3.431a.535.535 0 00.617.19l3.956-1.432-1.09 3.746-7.115-2.189zm-2.994 3.472h16.93l.636 2.25H25.281v-2.25zm0 3.375h17.883l.138.488a.571.571 0 00.262.337.54.54 0 00.416.047l9.739-2.916v18.356H25.28V37.446zm29.532 18a.57.57 0 01-.16.398.54.54 0 01-.387.164H24.734a.54.54 0 01-.386-.165.57.57 0 01-.16-.397v-.563h30.625v.563zM24.188 23.383h1.093v1.125h-1.093v-1.125zm1.093 1.125h1.094v1.125h-1.094v-1.125zm-1.093 1.125h1.093v1.125h-1.093v-1.125zm-1.094-1.125h1.093v1.125h-1.093v-1.125zm2.734 2.812h1.094v1.126h-1.094V27.32zm18.594-3.937h1.094v1.125h-1.094v-1.125z" fill="#fff"/><path d="M43.328 24.508h1.094v1.125h-1.094v-1.125zm2.188 0h1.093v1.125h-1.093v-1.125zm-1.094 1.125h1.094v1.125h-1.094v-1.125zm-3.282-2.25h1.094v1.125h-1.093v-1.125zm-1.093 3.937h1.094v1.126h-1.094V27.32z" fill="#fff"/></svg>